<svg width="105" height="108" viewBox="0 0 105 108" fill="none" xmlns="http://www.w3.org/2000/svg">
<path d="M85.9955 6.70444V24.0514M85.9955 41.3983V24.0514M85.9955 24.0514C80.958 17.4754 66.9601 4.32349 51.2688 4.32349M51.2688 4.32349C31.6547 4.32349 4.00195 17.9289 4.00195 54.3235C4.00195 90.718 26.1884 104.323 51.2688 104.323C58.1317 104.323 64.2874 103.262 69.5968 101.684M51.2688 4.32349C43.659 8.85863 28.4393 25.0718 28.4393 53.6432C28.4393 82.2146 43.659 97.5754 51.2688 101.684M56.4135 59.0854H69.5968M69.5968 59.0854H104.002H89.854V90.718C86.8922 93.702 79.8101 98.6492 69.5968 101.684M69.5968 59.0854V101.684" stroke="#051F36" stroke-width="7" stroke-linecap="square"/>
</svg>
